<?xml version="1.0" encoding="UTF-8"?><svg id="Layer_1" xmlns="http://www.w3.org/2000/svg" viewBox="0 0 360 108"><defs><style>.cls-1{fill:currentColor;}</style></defs><path class="cls-1" d="M109.43,68.5v-14.56l-5.28,10.59h-3.02l-5.28-10.59v14.56h-5.62v-24.32h6.1l6.3,12.71,6.34-12.71h6.06v24.32h-5.62Z"/><path class="cls-1" d="M124.71,68.84c-1.85,0-3.25-.58-4.2-1.73-.95-1.15-1.42-2.85-1.42-5.09v-11.51h5.48v10.31c0,1.1.22,1.94.65,2.52.43.58,1.05.87,1.85.87.73,0,1.44-.19,2.12-.58.69-.39,1.29-1.06,1.82-2.02v-11.1h5.48v11.82c0,.55.09.93.26,1.15.17.22.47.35.91.39v4.62c-.53.11-.97.19-1.34.22-.37.03-.7.05-.99.05-1.96,0-3.08-.76-3.36-2.29l-.1-1.1c-.82,1.19-1.84,2.06-3.07,2.62-1.22.56-2.59.84-4.09.84Z"/><path class="cls-1" d="M140.67,43.49h5.48v18.6c0,1.37.58,2.06,1.75,2.06.27,0,.58-.04.91-.12.33-.08.63-.2.91-.36l.72,4.11c-.69.32-1.47.57-2.36.75s-1.72.27-2.5.27c-1.58,0-2.79-.41-3.63-1.23-.85-.82-1.27-2.01-1.27-3.56v-20.52Z"/><path class="cls-1" d="M169.55,68.5h-5.48v-10.11c0-1.16-.23-2.02-.68-2.57-.46-.55-1.09-.82-1.88-.82-.32,0-.67.07-1.04.22-.38.15-.74.37-1.1.65-.36.29-.68.62-.98,1.01-.3.39-.53.82-.69,1.3v10.31h-5.48v-25.01h5.48v10.04c.66-1.07,1.54-1.9,2.62-2.48,1.08-.58,2.28-.87,3.58-.87,1.21,0,2.19.21,2.93.63.74.42,1.31.96,1.71,1.61s.67,1.38.8,2.19c.14.81.21,1.6.21,2.38v11.51Z"/><path class="cls-1" d="M178.63,68.84c-1.85,0-3.25-.58-4.2-1.73-.95-1.15-1.42-2.85-1.42-5.09v-11.51h5.48v10.31c0,1.1.22,1.94.65,2.52s1.05.87,1.85.87c.73,0,1.44-.19,2.12-.58.69-.39,1.29-1.06,1.82-2.02v-11.1h5.48v11.82c0,.55.09.93.26,1.15.17.22.47.35.91.39v4.62c-.53.11-.97.19-1.34.22s-.7.05-.99.05c-1.96,0-3.08-.76-3.36-2.29l-.1-1.1c-.82,1.19-1.84,2.06-3.07,2.62-1.22.56-2.59.84-4.09.84Z"/><path class="cls-1" d="M206.07,55.21c-1.33.02-2.52.24-3.6.65-1.07.41-1.85,1.03-2.33,1.85v10.79h-5.48v-17.99h5.04v3.63c.62-1.21,1.41-2.16,2.38-2.84s2-1.04,3.1-1.06h.55c.11,0,.23.01.34.03v4.93Z"/><path class="cls-1" d="M215.46,68.84c-1.53,0-3.04-.25-4.52-.74s-2.74-1.2-3.77-2.14l1.95-3.36c1.1.75,2.16,1.34,3.2,1.75s2.04.62,3,.62c.71,0,1.25-.13,1.64-.38.39-.25.58-.62.58-1.1s-.25-.86-.74-1.15c-.49-.29-1.35-.59-2.59-.91-1.21-.34-2.23-.67-3.07-.99s-1.51-.67-2.04-1.06c-.53-.39-.9-.83-1.13-1.34-.23-.5-.34-1.1-.34-1.78,0-.91.18-1.75.55-2.5.37-.75.87-1.39,1.51-1.92s1.4-.94,2.28-1.23c.88-.3,1.83-.45,2.86-.45,1.35,0,2.61.18,3.79.55,1.18.37,2.31,1.03,3.41,1.99l-2.12,3.29c-1.03-.71-1.94-1.22-2.74-1.54-.8-.32-1.58-.48-2.33-.48-.59,0-1.1.12-1.51.36s-.62.62-.62,1.15.22.88.67,1.13c.45.25,1.27.53,2.48.82,1.28.34,2.36.69,3.24,1.03.88.34,1.59.73,2.14,1.15.55.42.95.91,1.2,1.46.25.55.38,1.2.38,1.95,0,1.78-.66,3.2-1.99,4.25-1.32,1.05-3.12,1.58-5.38,1.58Z"/><path class="cls-1" d="M237.11,67.54c-.75.32-1.62.62-2.59.89-.97.27-1.95.41-2.93.41-.69,0-1.33-.09-1.94-.26-.61-.17-1.14-.45-1.59-.82-.46-.38-.82-.87-1.08-1.49s-.39-1.36-.39-2.23v-9.39h-2.29v-4.15h2.29v-5.72h5.48v5.72h3.67v4.15h-3.67v7.5c0,.59.15,1.02.45,1.28.3.26.67.39,1.13.39.41,0,.83-.07,1.27-.21.43-.14.81-.29,1.13-.45l1.06,4.35Z"/><path class="cls-1" d="M246.25,56.13c0-1.46.27-2.92.82-4.37.55-1.45,1.35-2.75,2.4-3.89,1.05-1.14,2.33-2.07,3.84-2.77,1.51-.71,3.22-1.06,5.14-1.06,2.28,0,4.27.49,5.94,1.47,1.68.98,2.93,2.26,3.75,3.84l-4.32,3.01c-.27-.64-.62-1.17-1.04-1.59-.42-.42-.89-.77-1.39-1.03-.5-.26-1.02-.45-1.54-.55-.53-.1-1.04-.15-1.54-.15-1.07,0-2.01.22-2.81.65-.8.43-1.46.99-1.99,1.68-.53.69-.91,1.46-1.17,2.33-.25.87-.38,1.75-.38,2.64,0,.96.15,1.88.45,2.77.3.89.73,1.68,1.29,2.36.56.69,1.23,1.23,2.02,1.63.79.4,1.67.6,2.65.6.5,0,1.02-.06,1.56-.19.54-.13,1.05-.32,1.54-.58.49-.26.94-.6,1.35-1.03.41-.42.74-.94.99-1.56l4.59,2.71c-.37.89-.91,1.69-1.63,2.4-.72.71-1.55,1.3-2.48,1.78s-1.93.85-2.98,1.1-2.08.38-3.08.38c-1.76,0-3.37-.36-4.85-1.08-1.47-.72-2.74-1.67-3.8-2.86-1.06-1.19-1.88-2.54-2.47-4.04-.58-1.51-.87-3.04-.87-4.59Z"/><path class="cls-1" d="M275.89,68.84c-.89,0-1.72-.14-2.48-.43-.77-.29-1.42-.69-1.97-1.2s-.98-1.12-1.3-1.82c-.32-.7-.48-1.46-.48-2.28,0-.89.19-1.7.57-2.43.38-.73.91-1.36,1.59-1.88.68-.52,1.5-.94,2.43-1.23.94-.3,1.98-.45,3.12-.45.75,0,1.48.06,2.19.19.71.13,1.32.31,1.85.57v-.82c0-2.08-1.2-3.12-3.6-3.12-.98,0-1.92.17-2.81.5s-1.83.83-2.81,1.49l-1.61-3.43c1.19-.78,2.42-1.36,3.7-1.75s2.64-.58,4.08-.58c2.72,0,4.82.64,6.3,1.92,1.48,1.28,2.23,3.15,2.23,5.62v4.62c0,.55.08.93.26,1.15.17.22.47.35.91.39v4.62c-.48.11-.91.19-1.3.22-.39.03-.74.05-1.06.05-1.03,0-1.8-.2-2.33-.6-.53-.4-.86-.96-.99-1.7l-.1-.82c-.8,1.03-1.75,1.82-2.86,2.36-1.11.55-2.28.82-3.51.82ZM277.5,64.9c.59,0,1.17-.1,1.73-.31s1.02-.48,1.39-.82c.53-.41.79-.84.79-1.3v-1.71c-.48-.18-1-.33-1.56-.43-.56-.1-1.08-.15-1.56-.15-1.01,0-1.83.23-2.48.69-.65.46-.98,1.05-.98,1.78,0,.66.25,1.2.75,1.63.5.42,1.14.63,1.92.63Z"/><path class="cls-1" d="M319.29,68.5h-5.48v-10.11c0-1.19-.22-2.05-.65-2.59-.43-.54-.99-.81-1.68-.81-.37,0-.74.08-1.11.24-.38.16-.73.38-1.04.67s-.61.62-.87,1.01c-.26.39-.47.81-.63,1.27v10.31h-5.48v-10.11c0-1.19-.22-2.05-.65-2.59-.43-.54-.99-.81-1.68-.81-.73,0-1.45.29-2.14.87-.7.58-1.21,1.35-1.52,2.31v10.31h-5.48v-17.99h4.93v3.01c.66-1.1,1.56-1.93,2.69-2.5,1.13-.57,2.45-.86,3.96-.86.75,0,1.41.09,1.97.27.56.18,1.04.43,1.46.75s.74.69.99,1.11c.25.42.43.87.55,1.35.68-1.12,1.59-1.98,2.71-2.59,1.12-.6,2.4-.91,3.84-.91,1.14,0,2.06.21,2.76.63.7.42,1.24.97,1.63,1.64.39.67.65,1.41.77,2.21.13.8.19,1.58.19,2.33v11.51Z"/><path class="cls-1" d="M334.26,68.84c-1.37,0-2.56-.29-3.56-.86-1.01-.57-1.78-1.37-2.33-2.4v10.21h-5.48v-25.28h4.76v2.91c.66-1.03,1.49-1.83,2.48-2.4.99-.57,2.17-.86,3.54-.86,1.21,0,2.32.24,3.34.72,1.02.48,1.9,1.14,2.64,1.97.74.83,1.32,1.82,1.75,2.95.42,1.13.63,2.35.63,3.65s-.19,2.59-.58,3.73c-.39,1.14-.93,2.13-1.61,2.96-.69.83-1.51,1.49-2.47,1.97s-2,.72-3.12.72ZM332.41,64.22c.59,0,1.14-.13,1.63-.39.49-.26.92-.61,1.28-1.04.37-.43.65-.94.84-1.52.19-.58.29-1.19.29-1.83s-.11-1.27-.33-1.83c-.22-.56-.51-1.04-.89-1.46-.38-.41-.83-.73-1.37-.96-.54-.23-1.11-.34-1.73-.34-.75,0-1.48.22-2.18.67s-1.23,1.04-1.59,1.8v3.7c.37.91.92,1.68,1.66,2.3s1.54.92,2.38.92Z"/><polygon class="cls-1" points="89.67 33.63 71.13 33.63 71.13 15.1 68.49 15.1 68.49 93.65 71.13 93.65 71.13 36.28 89.67 36.28 89.67 33.63"/><polygon class="cls-1" points="65.84 33.63 45.2 33.63 65.84 15.18 65.84 33.63"/><path class="cls-1" d="M65.84,35.84h-12.58l-19.2,15.89h10.59c-7.4,6.58-8.23,7.45-20.5,18.53h9.91c-4.11,3.89-8.57,7.5-21.18,18.09h50.31l-.05,5.3h2.69v-57.81Z"/><path class="cls-1" d="M90.97,79.45l3.47,6.78,3.53-6.78h2.95l-5.12,9.16v4.92h-2.72v-4.96l-5.09-9.12h2.97Z"/><path class="cls-1" d="M105.17,93.72c-.85,0-1.61-.15-2.28-.44s-1.25-.68-1.71-1.18c-.47-.5-.83-1.07-1.08-1.71s-.38-1.33-.38-2.04.12-1.41.38-2.06.61-1.22,1.08-1.71c.47-.5,1.04-.89,1.71-1.18s1.43-.44,2.28-.44,1.6.15,2.27.44,1.24.68,1.71,1.18c.47.5.83,1.07,1.08,1.71.25.65.38,1.33.38,2.06s-.13,1.39-.38,2.04c-.25.65-.61,1.22-1.07,1.71-.46.5-1.03.89-1.71,1.18-.67.29-1.43.44-2.28.44ZM102.45,88.35c0,.46.07.88.21,1.26.14.38.33.7.58.98.25.28.53.49.86.64.33.15.69.23,1.07.23s.74-.08,1.07-.23c.33-.15.62-.37.86-.64.24-.28.44-.61.57-.99s.21-.81.21-1.27-.07-.87-.21-1.25-.33-.71-.57-.99c-.25-.28-.53-.49-.86-.64-.33-.15-.69-.23-1.07-.23s-.74.08-1.07.24c-.33.16-.62.38-.86.65-.25.28-.44.61-.58.99s-.21.8-.21,1.25Z"/><path class="cls-1" d="M115.55,93.72c-1.07,0-1.88-.34-2.44-1.03s-.83-1.71-.83-3.05v-6.5h2.66v5.93c0,1.6.58,2.4,1.72,2.4.52,0,1.01-.16,1.5-.47s.88-.78,1.18-1.42v-6.44h2.66v7.34c0,.28.05.48.15.59.1.12.26.19.49.2v2.26c-.26.05-.49.09-.66.1-.18.01-.34.02-.49.02-.48,0-.86-.11-1.16-.33-.3-.22-.47-.52-.53-.9l-.06-.83c-.46.71-1.06,1.25-1.79,1.61-.73.36-1.53.54-2.4.54Z"/><path class="cls-1" d="M130.82,85.43c-.81.01-1.53.17-2.16.47s-1.09.74-1.37,1.34v6.28h-2.66v-10.39h2.44v2.22c.18-.36.4-.68.65-.96.25-.28.52-.53.81-.74s.58-.37.88-.49.58-.17.86-.17h.33c.07,0,.14,0,.21.02v2.42Z"/><path class="cls-1" d="M136.85,93.52v-14.08h5.97c.65,0,1.25.14,1.79.41.55.27,1.02.63,1.42,1.07s.71.94.93,1.51c.22.56.34,1.13.34,1.69s-.11,1.17-.32,1.73c-.21.56-.51,1.06-.89,1.5-.38.44-.85.79-1.39,1.05-.54.26-1.14.4-1.78.4h-3.33v4.72h-2.74ZM139.58,86.4h3.17c.5,0,.92-.2,1.26-.61s.5-.96.5-1.67c0-.36-.05-.68-.16-.96s-.24-.53-.42-.72-.37-.35-.61-.45c-.23-.1-.46-.15-.7-.15h-3.05v4.56Z"/><path class="cls-1" d="M148.92,79.05h2.66v11.14c0,.38.09.68.28.89.18.21.45.32.79.32.16,0,.33-.03.53-.08.19-.05.37-.12.54-.2l.36,2.02c-.36.17-.77.3-1.25.4-.47.09-.9.14-1.29.14-.83,0-1.48-.22-1.93-.66-.46-.44-.68-1.07-.68-1.89v-12.07Z"/><path class="cls-1" d="M158.06,93.72c-.5,0-.97-.08-1.41-.25-.44-.17-.81-.4-1.13-.69-.32-.3-.57-.64-.74-1.04-.18-.4-.27-.83-.27-1.31s.11-.94.33-1.36c.22-.42.52-.77.91-1.06.39-.29.86-.52,1.4-.68.54-.17,1.14-.25,1.79-.25.46,0,.91.04,1.36.12.44.08.84.19,1.18.34v-.59c0-.69-.2-1.22-.58-1.59-.39-.37-.97-.55-1.74-.55-.55,0-1.1.1-1.62.3-.53.2-1.07.49-1.63.87l-.81-1.69c1.33-.89,2.78-1.33,4.32-1.33s2.65.37,3.48,1.1c.83.73,1.24,1.79,1.24,3.18v3.23c0,.28.05.48.15.59.1.12.26.19.49.2v2.26c-.45.09-.84.14-1.17.14-.5,0-.89-.11-1.16-.34-.27-.22-.44-.52-.5-.89l-.06-.58c-.46.61-1.02,1.07-1.69,1.39-.66.32-1.37.48-2.12.48ZM158.81,91.78c.45,0,.88-.08,1.28-.24s.72-.37.94-.63c.29-.22.44-.48.44-.75v-1.19c-.32-.12-.66-.21-1.03-.29s-.73-.11-1.07-.11c-.69,0-1.25.16-1.69.47-.44.31-.65.7-.65,1.18,0,.45.17.82.52,1.12s.77.45,1.27.45Z"/><path class="cls-1" d="M165.95,88.33c0-.73.12-1.41.38-2.06.25-.65.61-1.22,1.09-1.71.48-.49,1.05-.88,1.72-1.17.67-.29,1.43-.44,2.28-.44,1.14,0,2.1.24,2.91.73.8.49,1.4,1.13,1.79,1.92l-2.6.79c-.22-.38-.52-.68-.89-.88-.37-.21-.78-.31-1.23-.31-.38,0-.74.08-1.07.23-.33.15-.62.36-.86.63-.25.27-.44.6-.58.98-.14.38-.21.81-.21,1.27s.07.89.22,1.27.34.71.58.99c.24.28.53.49.86.64.33.15.68.23,1.05.23.48,0,.92-.12,1.32-.36.4-.24.68-.53.84-.87l2.6.79c-.36.79-.95,1.44-1.77,1.94-.82.5-1.8.75-2.95.75-.85,0-1.61-.15-2.28-.44-.67-.29-1.25-.68-1.73-1.18-.47-.5-.84-1.07-1.1-1.73s-.39-1.34-.39-2.05Z"/><path class="cls-1" d="M182.51,93.72c-.83,0-1.59-.14-2.26-.43-.67-.28-1.25-.67-1.73-1.16-.48-.49-.84-1.06-1.1-1.71s-.39-1.33-.39-2.04.13-1.44.38-2.09.62-1.23,1.09-1.72,1.05-.89,1.73-1.18,1.44-.44,2.29-.44,1.6.15,2.27.44c.67.29,1.24.68,1.7,1.17.47.49.83,1.06,1.07,1.71.24.65.37,1.32.37,2.02,0,.17,0,.34,0,.5s-.02.29-.05.4h-8.03c.04.41.14.77.3,1.09s.36.59.61.81.54.4.85.52c.32.12.65.18.99.18.53,0,1.03-.13,1.5-.39.47-.26.79-.6.96-1.02l2.28.63c-.38.79-.99,1.44-1.83,1.95-.84.51-1.84.76-3,.76ZM185.2,87.46c-.07-.78-.35-1.4-.86-1.87-.51-.47-1.13-.7-1.85-.7-.36,0-.69.06-1,.19s-.58.3-.82.53c-.24.22-.43.5-.59.81-.15.32-.24.67-.27,1.05h5.39Z"/><path class="cls-1" d="M194.32,81.69v-2.64h2.66v2.64h-2.66ZM194.32,93.52v-10.39h2.66v10.39h-2.66Z"/><path class="cls-1" d="M209.03,93.52h-2.66v-5.83c0-.83-.15-1.44-.44-1.82-.29-.38-.69-.57-1.21-.57-.26,0-.54.05-.81.16-.28.11-.54.25-.78.45-.25.19-.47.42-.67.68-.2.26-.34.56-.44.87v6.07h-2.66v-10.39h2.4v1.92c.38-.66.94-1.18,1.67-1.55.73-.37,1.55-.55,2.46-.55.65,0,1.18.12,1.59.36.41.24.73.55.95.93s.38.82.47,1.31c.09.49.13.98.13,1.49v6.48Z"/><path class="cls-1" d="M222.33,92.99c-.36.16-.79.32-1.31.48s-1.06.24-1.63.24c-.37,0-.72-.05-1.04-.14-.32-.09-.61-.24-.85-.45-.25-.21-.44-.47-.58-.79s-.22-.72-.22-1.18v-5.97h-1.37v-2.04h1.37v-3.37h2.66v3.37h2.18v2.04h-2.18v5.08c0,.37.1.63.29.78.19.15.43.23.7.23s.55-.05.81-.14c.26-.09.48-.17.63-.24l.54,2.1Z"/><path class="cls-1" d="M233.38,93.52h-2.66v-5.83c0-.82-.15-1.42-.46-1.81-.3-.39-.73-.58-1.29-.58-.24,0-.49.05-.75.16-.26.11-.52.25-.75.45-.24.19-.46.42-.65.68-.2.26-.34.56-.44.87v6.07h-2.66v-14.47h2.66v6.01c.38-.67.9-1.19,1.56-1.56.65-.36,1.38-.54,2.17-.54.67,0,1.22.12,1.65.35.42.23.75.54.99.92.24.38.4.82.5,1.31.09.49.14.99.14,1.51v6.48Z"/><path class="cls-1" d="M240.51,93.72c-.83,0-1.59-.14-2.26-.43-.67-.28-1.25-.67-1.72-1.16-.48-.49-.84-1.06-1.1-1.71s-.39-1.33-.39-2.04.13-1.44.38-2.09.62-1.23,1.09-1.72,1.05-.89,1.73-1.18,1.44-.44,2.29-.44,1.6.15,2.27.44c.67.29,1.24.68,1.7,1.17.47.49.83,1.06,1.07,1.71.24.65.37,1.32.37,2.02,0,.17,0,.34,0,.5s-.02.29-.05.4h-8.03c.04.41.14.77.3,1.09.16.32.36.59.61.81s.54.4.85.52c.32.12.65.18.99.18.53,0,1.03-.13,1.5-.39.47-.26.79-.6.96-1.02l2.28.63c-.38.79-.99,1.44-1.83,1.95-.84.51-1.84.76-3,.76ZM243.21,87.46c-.07-.78-.35-1.4-.86-1.87-.51-.47-1.13-.7-1.85-.7-.36,0-.69.06-1,.19s-.58.3-.82.53c-.24.22-.43.5-.58.81-.15.32-.24.67-.27,1.05h5.39Z"/><path class="cls-1" d="M260.97,83.13c-.09-.09-.26-.22-.51-.38-.24-.16-.54-.31-.89-.47-.35-.15-.73-.28-1.14-.39-.41-.11-.83-.16-1.25-.16-.75,0-1.32.14-1.68.42-.37.28-.56.67-.56,1.17,0,.29.07.53.21.72.14.19.34.36.61.51.26.15.6.28,1,.4.4.12.87.25,1.4.38.69.19,1.31.38,1.87.59.56.21,1.04.48,1.43.79s.69.7.9,1.14c.21.44.32.99.32,1.64,0,.75-.14,1.4-.43,1.93-.28.54-.67.97-1.15,1.3-.48.33-1.04.57-1.67.72-.63.15-1.29.23-1.97.23-1.06,0-2.1-.16-3.13-.48-1.03-.32-1.96-.77-2.78-1.35l1.21-2.36c.12.12.33.27.64.47s.68.38,1.1.57c.42.19.89.35,1.41.49.52.13,1.04.2,1.59.2,1.51,0,2.26-.48,2.26-1.45,0-.3-.09-.56-.26-.77-.17-.21-.42-.4-.73-.55-.32-.16-.7-.3-1.15-.44-.45-.13-.95-.28-1.51-.44-.67-.19-1.26-.39-1.75-.6-.5-.22-.91-.48-1.24-.77-.33-.3-.58-.64-.74-1.03s-.25-.86-.25-1.4c0-.71.13-1.35.4-1.9.26-.56.63-1.02,1.1-1.39.47-.37,1.01-.65,1.64-.84.62-.19,1.29-.29,2-.29.99,0,1.9.16,2.74.47s1.56.68,2.18,1.1l-1.21,2.22Z"/><path class="cls-1" d="M269.28,93.72c-.85,0-1.61-.15-2.28-.44-.67-.29-1.25-.68-1.71-1.18-.47-.5-.83-1.07-1.08-1.71s-.38-1.33-.38-2.04.13-1.41.38-2.06.61-1.22,1.08-1.71c.47-.5,1.04-.89,1.71-1.18.67-.29,1.43-.44,2.28-.44s1.6.15,2.27.44c.67.29,1.24.68,1.71,1.18.47.5.83,1.07,1.08,1.71s.38,1.33.38,2.06-.13,1.39-.38,2.04-.61,1.22-1.07,1.71-1.03.89-1.71,1.18-1.43.44-2.28.44ZM266.57,88.35c0,.46.07.88.21,1.26.14.38.33.7.58.98.24.28.53.49.86.64.33.15.69.23,1.07.23s.74-.08,1.07-.23c.33-.15.62-.37.86-.64.24-.28.44-.61.58-.99.14-.38.21-.81.21-1.27s-.07-.87-.21-1.25c-.14-.38-.33-.71-.58-.99-.25-.28-.53-.49-.86-.64-.33-.15-.69-.23-1.07-.23s-.74.08-1.07.24c-.33.16-.62.38-.86.65-.25.28-.44.61-.58.99s-.21.8-.21,1.25Z"/><path class="cls-1" d="M286.15,93.52h-2.66v-5.83c0-.83-.15-1.44-.44-1.82-.29-.38-.69-.57-1.21-.57-.26,0-.54.05-.81.16-.28.11-.54.25-.78.45-.25.19-.47.42-.67.68-.2.26-.34.56-.44.87v6.07h-2.66v-10.39h2.4v1.92c.38-.66.94-1.18,1.67-1.55.73-.37,1.55-.55,2.46-.55.65,0,1.18.12,1.59.36.41.24.73.55.95.93s.38.82.47,1.31c.09.49.13.98.13,1.49v6.48Z"/></svg>
